<svg xmlns="http://www.w3.org/2000/svg" xmlns:xlink="http://www.w3.org/1999/xlink" version="1.1" id="Vrstva_1" x="0px" y="0px" viewBox="0 0 65.7 65.7" style="enable-background:new 0 0 65.7 65.7;" xml:space="preserve">
<style type="text/css">
	.st0{fill:#FFFFFF;}
</style>
<path class="st0" d="M32.6,18.9c4.6,0,5.1,0,7,0.1c4.7,0.2,6.8,2.4,7.1,7.1c0.1,1.8,0.1,2.4,0.1,7s0,5.1-0.1,7  c-0.2,4.6-2.4,6.8-7.1,7.1c-1.8,0.1-2.4,0.1-7,0.1s-5.1,0-7-0.1c-4.7-0.2-6.8-2.4-7.1-7.1c-0.1-1.8-0.1-2.4-0.1-7s0-5.1,0.1-7  c0.2-4.6,2.4-6.8,7.1-7.1C27.5,19,28,18.9,32.6,18.9z M32.6,15.8c-4.7,0-5.3,0-7.1,0.1c-6.3,0.3-9.7,3.8-10,10  c-0.1,1.8-0.1,2.4-0.1,7.1s0,5.3,0.1,7.1c0.3,6.3,3.8,9.7,10,10c1.8,0.1,2.4,0.1,7.1,0.1s5.3,0,7.1-0.1c6.2-0.3,9.7-3.8,10-10  c0.1-1.8,0.1-2.4,0.1-7.1s0-5.3-0.1-7.1c-0.3-6.2-3.8-9.7-10-10C37.9,15.9,37.3,15.8,32.6,15.8z M32.6,24.2c-4.9,0-8.8,4-8.8,8.8  s4,8.8,8.8,8.8s8.8-4,8.8-8.8C41.4,28.2,37.5,24.2,32.6,24.2z M32.6,38.8c-3.2,0-5.7-2.6-5.7-5.7c0-3.2,2.6-5.7,5.7-5.7  c3.2,0,5.7,2.6,5.7,5.7S35.8,38.8,32.6,38.8z M41.8,21.8c-1.1,0-2.1,0.9-2.1,2.1c0,1.1,0.9,2.1,2.1,2.1c1.1,0,2.1-0.9,2.1-2.1  C43.8,22.7,42.9,21.8,41.8,21.8z"/>
</svg>